<svg id="svg8" xmlns="http://www.w3.org/2000/svg" viewBox="0 0 428.81 141.67"><defs><style>.cls-1,.cls-2,.cls-3{fill:#2ad5be;}.cls-1{fill-opacity:0;}.cls-3{isolation:isolate;font-size:80px;font-family:Gadugi, Gadugi;}</style></defs><title>logo_da</title><rect id="rect101" class="cls-1" width="428.81" height="141.67"/><rect id="rect4597" class="cls-1" width="108.34" height="67.43"/><g id="g20"><path id="path18" class="cls-2" d="M137.18,23.1a34,34,0,0,0-25.63-11.48c-7.75,0-16.11,4.61-22.22,8-2.22,1.23-5.27,2.91-6.16,3-.89-.11-3.92-1.78-6.14-3-6.09-3.37-14.44-8-22.25-8A34,34,0,0,0,29.14,23.1a39.06,39.06,0,0,0-9.76,26.08c0,14,5,33.89,13.44,53.22a129,129,0,0,0,11.52,21.5c4.52,6.5,8.39,9.66,11.85,9.66,1.53,0,4.34-.65,5.92-5s2.91-9.1,4.37-14.26c3.87-13.65,8.68-30.64,16.43-30.64h.49c3.44,0,6.53,3,9.43,9s5.05,14,7.17,21.75c1.4,5.12,2.72,10,4.2,14.11,1.54,4.33,4.32,5,5.84,5,3.44,0,7.31-3.21,11.84-9.81A133.5,133.5,0,0,0,133.43,102c8.46-19.49,13.51-39.24,13.51-52.82a39.06,39.06,0,0,0-9.76-26.11m-28,10a85.09,85.09,0,0,1-15.42-2.25c-3.29-.87-7.18-2.62-7.18-3.14s4.22-3,5.24-3.53c5.61-3.1,13.29-7.33,19.71-7.33,18.91,0,30.23,16.47,30.23,32.36,0,12.72-5,32.16-13.08,50.75a130.19,130.19,0,0,1-11.07,20.84c-4.09,6-6.74,7.7-7.55,7.55-.49-.1-.55-.45-.94-1.52-1.42-4-2.71-8.72-4.08-13.74-2.17-8-4.42-16.18-7.49-22.62-3.85-8.06-8.47-12-14.13-12h-.49c-5.45,0-10,3.89-13.8,11.89-3.06,6.38-5.39,14.6-7.64,22.54-1.43,5.06-2.79,9.84-4.26,13.91-.32.9-.42,1.48-1,1.57s-2.48-.08-7.58-7.42a125.66,125.66,0,0,1-11-20.6c-8-18.44-13-38-13-51.15,0-15.92,11.29-32.39,30.19-32.39,4.91,0,11.37,2.24,17.26,6,.87.55,2.08,1.49,3.26,2.39l1.36,1a59,59,0,0,0,5.45,3.68,28.74,28.74,0,0,0,3.34,1.76,37.93,37.93,0,0,0,14.9,3,37.56,37.56,0,0,0,8.83-1s.79-.21.77-.41-.79-.21-.79-.21Z"/></g><g id="text4721"><text class="cls-3" transform="translate(161.37 97.73) scale(0.59 1)">Dentagenda</text></g></svg>