<?xml version="1.0" encoding="UTF-8" standalone="no"?>
<!-- Created with Inkscape (http://www.inkscape.org/) -->

<svg
   xmlns:dc="http://purl.org/dc/elements/1.1/"
   xmlns:cc="http://creativecommons.org/ns#"
   xmlns:rdf="http://www.w3.org/1999/02/22-rdf-syntax-ns#"
   xmlns:svg="http://www.w3.org/2000/svg"
   xmlns="http://www.w3.org/2000/svg"
   xmlns:sodipodi="http://sodipodi.sourceforge.net/DTD/sodipodi-0.dtd"
   xmlns:inkscape="http://www.inkscape.org/namespaces/inkscape"
   width="15cm"
   height="5cm"
   viewBox="0 0 150 49.999999"
   version="1.1"
   id="svg8"
   inkscape:version="0.92.2 (5c3e80d, 2017-08-06)"
   sodipodi:docname="logobackg.svg">
  <defs
     id="defs2" />
  <sodipodi:namedview
     id="base"
     pagecolor="#ffffff"
     bordercolor="#666666"
     borderopacity="1.0"
     inkscape:pageopacity="0.0"
     inkscape:pageshadow="2"
     inkscape:zoom="0.98994949"
     inkscape:cx="99.423739"
     inkscape:cy="76.094516"
     inkscape:document-units="mm"
     inkscape:current-layer="layer1"
     showgrid="false"
     units="cm"
     inkscape:window-width="1920"
     inkscape:window-height="1001"
     inkscape:window-x="-9"
     inkscape:window-y="-9"
     inkscape:window-maximized="1" />
  <metadata
     id="metadata5">
    <rdf:RDF>
      <cc:Work
         rdf:about="">
        <dc:format>image/svg+xml</dc:format>
        <dc:type
           rdf:resource="http://purl.org/dc/dcmitype/StillImage" />
        <dc:title></dc:title>
      </cc:Work>
    </rdf:RDF>
  </metadata>
  <g
     inkscape:label="Layer 1"
     inkscape:groupmode="layer"
     id="layer1"
     transform="translate(0,-247)">
    <flowRoot
       xml:space="preserve"
       id="flowRoot77"
       style="fill:black;fill-opacity:1;stroke:none;font-family:'Ristretto Pro';font-style:normal;font-weight:normal;font-size:40px;line-height:1.25;letter-spacing:0px;word-spacing:0px;-inkscape-font-specification:'Ristretto Pro';font-stretch:normal;font-variant:normal;"><flowRegion
         id="flowRegion79"
         style="-inkscape-font-specification:'Ristretto Pro';font-family:'Ristretto Pro';font-weight:normal;font-style:normal;font-stretch:normal;font-variant:normal;"><rect
           id="rect81"
           width="308.09653"
           height="116.16754"
           x="237.38585"
           y="40.483955"
           style="-inkscape-font-specification:'Ristretto Pro';font-family:'Ristretto Pro';font-weight:normal;font-style:normal;font-stretch:normal;font-variant:normal;" /></flowRegion><flowPara
         id="flowPara83"></flowPara></flowRoot>    <flowRoot
       xml:space="preserve"
       id="flowRoot85"
       style="fill:black;fill-opacity:1;stroke:none;font-family:sans-serif;font-style:normal;font-weight:normal;font-size:40px;line-height:50px;letter-spacing:0px;word-spacing:0px;"><flowRegion
         id="flowRegion87"
         style="line-height:50px;"><rect
           id="rect89"
           width="315.1676"
           height="116.16754"
           x="208.09143"
           y="21.291058"
           style="line-height:50px;" /></flowRegion><flowPara
         id="flowPara91"></flowPara></flowRoot>    <text
       xml:space="preserve"
       style="font-style:normal;font-weight:normal;font-size:10.58333302px;line-height:1.25;font-family:sans-serif;letter-spacing:0px;word-spacing:0px;fill:#000000;fill-opacity:1;stroke:none;stroke-width:0.26458332"
       x="-26.994225"
       y="226.44083"
       id="text95"><tspan
         sodipodi:role="line"
         id="tspan93"
         x="-26.994225"
         y="236.09633"
         style="font-style:normal;font-variant:normal;font-weight:normal;font-stretch:normal;font-size:22.57777786px;font-family:'Ristretto Pro';-inkscape-font-specification:'Ristretto Pro';stroke-width:0.26458332" /></text>
    <rect
       style="fill:#2ad5be;stroke-width:0.26458332;fill-opacity:0"
       id="rect101"
       width="151.27455"
       height="49.979401"
       x="-0.26726952"
       y="247.28787" />
    <rect
       style="fill:#2ad5be;fill-opacity:0;stroke-width:0.26458332"
       id="rect4597"
       width="38.219543"
       height="23.786985"
       x="-0.26726952"
       y="247.28787" />
    <rect
       y="247.28787"
       x="-0.26726952"
       height="49.979404"
       width="151.27455"
       id="use4693"
       style="fill:#2ad5be;fill-opacity:1;stroke:none;stroke-width:0.26458332;stroke-opacity:1" />
    <g
       id="g20"
       transform="matrix(0.11042836,0,0,0.11042836,6.5675941,250.40226)"
       style="fill:#ffffff">
      <path
         d="M 376.328,45.601 C 355.197,21.943 326.115,8.915 294.437,8.915 269.671,8.915 242.96,23.65 223.443,34.416 216.338,38.338 206.622,43.7 203.75,44.053 200.891,43.706 191.225,38.358 184.137,34.437 164.67,23.666 138.009,8.915 113.068,8.915 81.389,8.915 52.306,21.943 31.174,45.601 11.071,68.108 0,97.734 0,129.021 c 0,44.695 16.05,108.255 42.933,170.029 11.96,27.484 24.691,51.233 36.816,68.68 14.432,20.766 26.817,30.859 37.864,30.859 4.902,0 13.878,-2.079 18.914,-16.007 4.894,-13.534 9.296,-29.069 13.964,-45.547 12.354,-43.606 27.728,-97.878 52.48,-97.878 h 1.563 c 11.005,0 20.856,9.426 30.115,28.818 9.172,19.209 16.145,44.752 22.898,69.485 4.463,16.351 8.68,31.792 13.416,45.085 4.934,13.842 13.809,15.912 18.666,15.915 10.992,-10e-4 23.365,-10.249 37.828,-31.329 12.094,-17.626 24.852,-41.611 36.895,-69.361 27.02,-62.271 43.152,-125.354 43.152,-168.75 0,-31.287 -11.072,-60.913 -31.176,-83.419 m -89.531,32.084 c -0.254,-0.017 -25.844,-1.242 -49.139,-7.411 -10.504,-2.781 -22.924,-8.369 -22.924,-10.027 0,-1.614 13.494,-9.471 16.748,-11.267 17.924,-9.888 42.469,-23.43 62.955,-23.43 60.361,0 96.432,52.609 96.432,103.471 0,40.62 -16.008,102.744 -41.779,162.126 -11.457,26.404 -24.012,50.047 -35.35,66.572 -13.082,19.067 -21.547,24.61 -24.111,24.105 -1.574,-0.311 -1.77,-1.427 -2.994,-4.865 -4.531,-12.712 -8.668,-27.863 -13.047,-43.904 -6.938,-25.41 -14.109,-51.687 -23.928,-72.25 -12.301,-25.762 -27.062,-38.285 -45.126,-38.285 h -1.563 c -17.401,0 -31.821,12.423 -44.081,37.978 -9.786,20.397 -17.218,46.631 -24.404,72.002 -4.58,16.165 -8.905,31.436 -13.602,44.424 -1.037,2.867 -1.357,4.739 -3.271,5.029 -1.5,0.228 -7.907,-0.269 -24.204,-23.718 C 82.063,341.91 69.554,318.533 58.186,292.411 32.556,233.517 16.635,170.91 16.635,129.02 c 0,-50.862 36.071,-103.471 96.433,-103.471 15.69,0 36.309,7.149 55.155,19.124 2.764,1.757 6.656,4.748 10.42,7.642 1.502,1.155 2.982,2.292 4.36,3.329 4.418,3.309 10.388,7.636 17.398,11.763 2.989,1.764 6.708,3.96 10.658,5.636 15.105,6.412 31.121,9.663 47.602,9.663 16.793,0 28.088,-2.987 28.199,-3.022 0,0 2.527,-0.668 2.447,-1.325 -0.08,-0.657 -2.51,-0.674 -2.51,-0.674 z"
         id="path18"
         inkscape:connector-curvature="0"
         style="fill:#ffffff" />
    </g>
    <flowRoot
       xml:space="preserve"
       id="flowRoot4711"
       style="fill:black;fill-opacity:1;stroke:none;font-family:'Ristretto Pro';font-style:normal;font-weight:normal;font-size:40px;line-height:1.25;letter-spacing:0px;word-spacing:0px;-inkscape-font-specification:'Ristretto Pro';font-stretch:normal;font-variant:normal;"><flowRegion
         id="flowRegion4713"
         style="-inkscape-font-specification:'Ristretto Pro';font-family:'Ristretto Pro';font-weight:normal;font-style:normal;font-stretch:normal;font-variant:normal;"><rect
           id="rect4715"
           width="120.20815"
           height="104.04572"
           x="-255.56859"
           y="18.260599"
           style="-inkscape-font-specification:'Ristretto Pro';font-family:'Ristretto Pro';font-weight:normal;font-style:normal;font-stretch:normal;font-variant:normal;" /></flowRegion><flowPara
         id="flowPara4717"></flowPara></flowRoot>    <text
       xml:space="preserve"
       style="font-style:normal;font-weight:normal;font-size:10.58333302px;line-height:1.25;font-family:sans-serif;letter-spacing:0px;word-spacing:0px;fill:#000000;fill-opacity:1;stroke:none;stroke-width:0.26458332"
       x="56.66114"
       y="281.76562"
       id="text4721"><tspan
         sodipodi:role="line"
         id="tspan4719"
         x="56.66114"
         y="281.76562"
         style="font-style:normal;font-variant:normal;font-weight:normal;font-stretch:normal;font-size:28.22222137px;font-family:'Ristretto Pro';-inkscape-font-specification:'Ristretto Pro';fill:#ffffff;stroke-width:0.26458332">Dentagenda</tspan></text>
    <text
       xml:space="preserve"
       style="font-style:normal;font-weight:normal;font-size:10.58333302px;line-height:1.25;font-family:sans-serif;letter-spacing:0px;word-spacing:0px;fill:#000000;fill-opacity:1;stroke:none;stroke-width:0.26458332"
       x="-9.6217031"
       y="216.28461"
       id="text4725"><tspan
         sodipodi:role="line"
         id="tspan4723"
         x="-9.6217031"
         y="225.94011"
         style="stroke-width:0.26458332" /></text>
  </g>
</svg>
